<svg xmlns="http://www.w3.org/2000/svg" width="24" height="25" viewBox="0 0 24 25">
    <g fill="none" fill-rule="evenodd">
        <path fill="#FFF" d="M0 0H1440V2390H0z" transform="translate(-585 -2182)"/>
        <g>
            <path fill="#FFF" d="M0 0H1440V417H0z" transform="translate(-585 -2182) translate(0 1973)"/>
            <g transform="translate(-585 -2182) translate(0 1973) translate(570 201.446)">
                <rect width="290" height="39" x=".5" y=".645" fill="#FAFAFA" stroke="#E9E9E9" rx="4"/>
                <path fill="#C3BBB8" fill-rule="nonzero" d="M25.5 10.072c4.694 0 8.5 3.833 8.5 8.562 0 2.001-.682 3.842-1.824 5.3l4.531 4.563c.39.394.39 1.032 0 1.425-.36.363-.928.39-1.32.084l-.094-.084-4.53-4.564c-1.448 1.15-3.276 1.837-5.263 1.837-4.694 0-8.5-3.833-8.5-8.561 0-4.729 3.806-8.562 8.5-8.562zm0 2.015c-3.59 0-6.5 2.93-6.5 6.547 0 3.616 2.91 6.547 6.5 6.547 1.772 0 3.38-.715 4.552-1.873.012-.019.026-.034.04-.048l.047-.04C31.29 22.038 32 20.42 32 18.634c0-3.616-2.91-6.547-6.5-6.547z"/>
            </g>
        </g>
    </g>
</svg>
